<?xml version="1.0" encoding="UTF-8"?>
<svg xmlns="http://www.w3.org/2000/svg" xmlns:xlink="http://www.w3.org/1999/xlink" width="20px" height="27px" viewBox="0 0 20 26" version="1.1">
<g id="surface1">
<path style=" stroke:none;fill-rule:nonzero;fill:rgb(100%,100%,100%);fill-opacity:1;" d="M 16.597656 13.644531 C 16.589844 11.78125 17.453125 10.375 19.203125 9.339844 C 18.222656 7.972656 16.746094 7.222656 14.792969 7.074219 C 12.941406 6.929688 10.921875 8.125 10.183594 8.125 C 9.402344 8.125 7.609375 7.125 6.203125 7.125 C 3.296875 7.171875 0.207031 9.382812 0.207031 13.890625 C 0.207031 15.21875 0.457031 16.59375 0.957031 18.011719 C 1.625 19.875 4.03125 24.445312 6.542969 24.371094 C 7.855469 24.339844 8.78125 23.460938 10.488281 23.460938 C 12.144531 23.460938 13.003906 24.371094 14.46875 24.371094 C 17 24.335938 19.175781 20.179688 19.8125 18.3125 C 16.417969 16.753906 16.597656 13.742188 16.597656 13.644531 Z M 13.652344 5.304688 C 15.074219 3.660156 14.941406 2.164062 14.902344 1.625 C 13.644531 1.695312 12.191406 2.457031 11.363281 3.398438 C 10.453125 4.402344 9.917969 5.648438 10.03125 7.046875 C 11.390625 7.148438 12.628906 6.46875 13.652344 5.308594 Z M 13.652344 5.304688 "/>
</g>
</svg>
